<svg width="48" height="48" viewBox="0 0 16 16" xmlns="http://www.w3.org/2000/svg">
    <path fill-rule="evenodd" clip-rule="evenodd" d="M8.379 10.544c.73-.733 1.432-1.435 2.165-2.165.932-.992 1.105-1.912.671-2.234l-.889-.513a1.163 1.163 0 01-.425-1.588l1.334-2.312a1.163 1.163 0 011.589-.425l.889.513c2.884 1.665-.464 7.013-1.864 8.413l-1.616 1.616c-1.4 1.4-6.748 4.748-8.413 1.864l-.513-.89a1.163 1.163 0 01.425-1.588L4.044 9.9a1.163 1.163 0 011.588.425l.514.89c.321.433 1.24.26 2.233-.672z" fill="#000"></path>
</svg>